<svg width="24" height="24" viewBox="0 0 24 24" fill="none" xmlns="http://www.w3.org/2000/svg">
<path d="M2.54175 18.888V6.89421C2.54175 6.21257 2.81272 5.55905 3.29471 5.07706C3.7767 4.59507 4.43022 4.3241 5.11186 4.3241H11.1088C11.5819 4.3241 11.9655 4.70766 11.9655 5.1808C11.9655 5.65394 11.5819 6.0375 11.1088 6.0375H5.11186C4.88464 6.0375 4.6668 6.12783 4.50614 6.28849C4.34548 6.44915 4.25515 6.66699 4.25515 6.89421V18.888C4.25515 19.1153 4.34548 19.3331 4.50614 19.4938C4.6668 19.6544 4.88465 19.7447 5.11186 19.7447H17.1057C17.3329 19.7447 17.5507 19.6544 17.7114 19.4938C17.8721 19.3331 17.9624 19.1153 17.9624 18.888V12.8911C17.9624 12.418 18.346 12.0344 18.8191 12.0344C19.2922 12.0344 19.6758 12.418 19.6758 12.8911V18.888C19.6758 19.5697 19.4048 20.2232 18.9228 20.7052C18.4409 21.1872 17.7873 21.4582 17.1057 21.4582H5.11186C4.43022 21.4582 3.7767 21.1872 3.29471 20.7052C2.81272 20.2232 2.54175 19.5697 2.54175 18.888Z" fill="#F6F6F7"/>
<path d="M19.926 5.00039C19.9259 4.75463 19.8285 4.51869 19.6547 4.3449C19.4809 4.17113 19.245 4.07367 18.9992 4.07367C18.7534 4.07367 18.5175 4.17113 18.3437 4.3449L10.6518 12.0356L10.2142 13.7841L11.9628 13.3474L19.6547 5.65588C19.8285 5.48206 19.926 5.24618 19.926 5.00039ZM21.5793 5.00039C21.5793 5.68465 21.3075 6.34092 20.8237 6.82479L12.9703 14.6778C12.8644 14.7837 12.7314 14.8594 12.5861 14.8957L9.27938 15.7223C8.99777 15.7926 8.69994 15.7096 8.49469 15.5044C8.28944 15.2991 8.20712 15.0014 8.27753 14.7197L9.1042 11.4132L9.13811 11.3067C9.17954 11.203 9.2419 11.1084 9.32136 11.029L17.1747 3.176C17.6586 2.69218 18.3149 2.42041 18.9992 2.42041C19.6835 2.42041 20.3398 2.69218 20.8237 3.176C21.3075 3.65983 21.5792 4.31616 21.5793 5.00039Z" fill="#F6F6F7"/>
</svg>
