<svg width="375" height="392" viewBox="0 0 375 392" fill="none" xmlns="http://www.w3.org/2000/svg">
<path d="M40.3578 365.175C30.7392 406.159 -30.0097 396.988 -27.0925 354.991L-22.4599 288.301L-30.0386 305.516C-37.1969 321.776 -56.1776 329.155 -72.4332 321.998C-88.6888 314.841 -96.0638 295.857 -88.9054 279.597L-88.9025 41.3937C-79.0995 19.1264 -54.3358 16.2079 -38.208 26.8141L-22.4597 32.4919C-13.1564 -7.14912 47.0003 -14.362 70.4998 32.4918L102.465 72.224C160.45 44.8935 173.897 136.412 178.801 167.514L185.669 211.072L191.968 199.963L192.116 199.704C204.76 177.83 235.969 176.746 250.093 197.69L250.259 197.939L285.889 251.728L326.35 218.722L326.65 218.48C339.28 208.409 357.241 208.546 369.714 218.809L370.01 219.055L432.911 271.997C446.5 283.435 448.244 303.727 436.807 317.321C425.369 330.915 405.081 332.663 391.492 321.225L347.671 284.342L300.776 322.596C285.093 335.389 261.799 331.852 250.624 314.98L223.72 274.364L199.116 317.753C183.136 345.932 140.595 338.204 135.55 306.207L134.503 299.568L120.048 342.949C107.755 379.839 53.2517 370.921 53.3649 332.036L53.4303 309.472L40.3578 365.175Z" fill="#2F7FFF"/>
</svg>
