<svg width="45" height="40" viewBox="0 0 45 40" fill="none" xmlns="http://www.w3.org/2000/svg">
<path d="M18.4734 38.6318L16.7663 39.1137L15.3803 38.0209L17.5269 35.3824L18.4734 38.6318ZM9.92772 0.161053C14.2409 -0.549235 18.7785 1.12905 22.4848 4.42228C27.8037 1.54049 33.7531 1.35404 38.2952 3.64059C40.9703 4.98731 43.151 7.21175 44.2023 10.1835C45.2543 13.1576 45.0583 16.5426 43.6203 20.0281C40.7815 26.9094 34.1441 31.5439 28.8309 34.3576C26.0967 35.8056 23.532 36.8654 21.6525 37.5638C20.7099 37.914 19.9323 38.176 19.3828 38.3527C19.1078 38.4411 18.8894 38.5084 18.7354 38.5548C18.6584 38.5779 18.5974 38.5959 18.5534 38.6087C18.5314 38.6151 18.5136 38.6202 18.5002 38.6241C18.4936 38.626 18.4879 38.6277 18.4834 38.6289C18.4812 38.6295 18.4793 38.63 18.4776 38.6305C18.4768 38.6307 18.4759 38.631 18.4754 38.6311C18.4749 38.6313 18.4742 38.6315 18.3556 38.2255L17.5269 35.3824L15.6484 37.6908C15.387 38.0116 15.3795 38.0198 15.379 38.0198C15.3787 38.0195 15.3779 38.0187 15.3772 38.0182C15.3759 38.0172 15.3743 38.0161 15.3725 38.0147C15.369 38.0119 15.3646 38.0084 15.3593 38.0041C15.3486 37.9957 15.3344 37.9842 15.3166 37.97C15.2811 37.9416 15.2316 37.902 15.1693 37.8512C15.0447 37.7497 14.8682 37.6039 14.6473 37.4174C14.2059 37.0447 13.5858 36.5068 12.8491 35.829C11.3809 34.4781 9.42313 32.5476 7.48655 30.2387C3.79026 25.8319 -0.562071 19.196 0.059755 12.2682C0.654155 5.64645 4.3868 1.07356 9.92772 0.161053ZM16.5777 32.1338C16.5771 32.1339 16.5768 32.1342 16.5768 32.1342C16.5768 32.1342 16.5775 32.1339 16.5788 32.1335C16.5786 32.1336 16.578 32.1337 16.5777 32.1338ZM19.3472 10.9401C16.4002 7.47776 13.1473 6.48533 11.0607 6.82897C9.33455 7.11327 7.29059 8.51896 6.90062 12.8633C6.53816 16.9016 9.20889 21.6742 12.782 25.9342C14.4801 27.9587 16.2189 29.6761 17.5383 30.8899C17.8114 31.1412 18.0659 31.3694 18.2966 31.5737C18.5786 31.475 18.8904 31.3641 19.2272 31.239C20.9026 30.6164 23.1767 29.6752 25.5776 28.4038C30.5347 25.7786 35.3533 22.0999 37.2574 17.4843C38.1909 15.2215 38.1213 13.5503 37.7168 12.4069C37.3115 11.2611 36.4529 10.3066 35.1684 9.65995C32.5437 8.33865 28.1495 8.3987 24.057 11.4606L21.4502 13.4108L19.3472 10.9401Z" fill="#F6F6F7"/>
</svg>
