<svg width="141" height="111" viewBox="0 0 141 111" fill="none" xmlns="http://www.w3.org/2000/svg">
<path d="M0.307943 49.8151C-1.33216 38.3177 3.60645 27.3005 14.4996 18.5348C25.3065 9.83856 42.0626 3.2331 64.7158 -0.000115486L65.6864 6.80364C43.7361 9.93653 28.312 16.2408 18.8065 23.8897C9.38738 31.4693 5.88153 40.2329 7.10994 48.8443C8.61055 59.3636 17.5103 68.3338 34.7645 72.2783L38.0894 73.0386L33.988 91.6009L53.3771 74.3422L54.688 74.3447C60.9243 74.3565 67.7366 73.8717 75.1038 72.8202C96.4681 69.771 111.909 63.4703 121.572 55.7829C131.177 48.1412 134.9 39.3285 133.68 30.7793C132.506 22.5489 126.257 14.1144 114.19 10.5753C102.052 7.01542 83.7453 8.3766 58.936 20.7794L55.8641 14.6317C81.5869 1.77224 101.743 -0.237193 116.123 3.98032C130.574 8.21852 138.899 18.7092 140.482 29.8085C142.131 41.3681 136.84 52.4177 125.849 61.1618C114.914 69.8604 98.1744 76.4697 76.0744 79.624C68.9237 80.6445 62.2226 81.1591 55.994 81.2127L22.6984 110.851L29.9257 78.1391C13.0009 73.406 2.2373 63.3399 0.307943 49.8151Z" fill="#F6F6F7"/>
</svg>
