<svg width="18" height="18" viewBox="0 0 18 18" fill="none" xmlns="http://www.w3.org/2000/svg">
<path d="M6.5459 0.803223C8.00641 -0.267707 9.99359 -0.267707 11.4541 0.803223L16.4561 4.49854C17.4199 5.1962 17.9934 6.31162 18 7.50146V14.1899C17.94 16.2675 16.2665 17.9209 14.2119 17.979H3.79785C1.73934 17.926 0.0600144 16.2714 0 14.1899V7.50146C0.00661318 6.31162 0.580091 5.1962 1.54395 4.49854L6.5459 0.803223ZM4.7373 12.5513C4.34499 12.5513 4.02653 12.869 4.02637 13.2612C4.02637 13.6536 4.34489 13.9722 4.7373 13.9722H13.2627C13.6551 13.9722 13.9736 13.6536 13.9736 13.2612C13.9735 12.869 13.655 12.5513 13.2627 12.5513H4.7373Z" fill="white" fill-opacity="0.5"/>
</svg>
