<svg width="91" height="99" viewBox="0 0 91 99" fill="none" xmlns="http://www.w3.org/2000/svg">
<path d="M73.0315 1.50354C64.0112 -1.63492 56.1692 0.410756 50.0198 5.13332C44.5072 9.36674 40.4179 15.6759 37.7135 22.1207C34.6695 19.5693 31.2742 17.4128 27.7324 16.046C21.9751 13.8242 15.483 13.5988 9.81865 17.6998C-0.885971 25.45 -2.75097 40.3716 3.79915 55.2797C10.4045 70.3136 25.6968 86.1105 50.8615 97.5201L52.9982 98.4887L54.6731 96.8485C69.9601 81.876 83.0605 61.6891 88.3371 43.6157C90.9725 34.5891 91.7568 25.7437 89.5332 18.2441C87.2493 10.5415 81.8766 4.58106 73.0315 1.50354ZM54.1925 10.5416C58.695 7.08376 64.1472 5.64063 70.7788 7.94796C77.5854 10.3162 81.3263 14.6255 82.9732 20.1801C84.6804 25.9378 84.2127 33.3374 81.7692 41.7071C77.0746 57.7869 65.4572 76.1719 51.5499 90.3121C28.8491 79.5311 15.666 65.2883 10.0647 52.5397C4.23435 39.2697 6.73554 28.3648 13.8366 23.2236C17.0752 20.8789 20.9557 20.7486 25.2643 22.4113C28.7181 23.7441 32.2162 26.1681 35.3032 29.1341C33.8637 34.4392 33.2902 39.6744 33.7381 43.9161C34.0319 46.6988 34.8129 49.5161 36.5382 51.5549C37.4408 52.6214 38.6143 53.4842 40.0636 53.941C41.506 54.3956 43.0084 54.3812 44.4744 54.0312C47.2915 53.3585 49.4706 51.7289 50.6088 49.2332C51.6699 46.9063 51.6137 44.2882 51.096 41.891C50.079 37.1817 46.9818 31.8948 43.0233 27.3441C43.1539 26.9758 43.2893 26.607 43.43 26.2384C45.8357 19.9342 49.5342 14.119 54.1925 10.5416ZM40.8677 35.7432C42.7111 38.498 43.9406 41.1623 44.4084 43.3284C44.7582 44.948 44.6048 45.9181 44.3819 46.4068C44.2361 46.7266 43.9443 47.14 42.8819 47.3937C42.4083 47.5067 42.1893 47.4534 42.1243 47.433C42.0662 47.4147 41.9465 47.3662 41.7654 47.1522C41.323 46.6295 40.7744 45.4067 40.5415 43.2009C40.3209 41.1119 40.4265 38.5486 40.8677 35.7432Z" fill="#F6F6F7"/>
</svg>
