<svg width="314" height="248" viewBox="0 0 314 248" fill="none" xmlns="http://www.w3.org/2000/svg">
<path d="M286.228 247.651C285.319 247.738 284.414 247.774 283.514 247.763L283.669 235.333C284.133 235.339 284.594 235.32 285.052 235.276L286.228 247.651ZM280.818 235.005C281.308 235.109 281.79 235.188 282.262 235.242L280.844 247.592C279.968 247.491 279.102 247.348 278.245 247.167L280.818 235.005ZM291.513 246.571C290.646 246.846 289.775 247.072 288.901 247.252L286.404 235.074C286.849 234.983 287.298 234.866 287.753 234.722L291.513 246.571ZM277.839 234.108C278.352 234.306 278.856 234.479 279.349 234.628L275.763 246.53C274.956 246.287 274.158 246.011 273.37 245.708L277.839 234.108ZM296.333 244.514C295.563 244.929 294.786 245.306 294.001 245.643L289.096 234.221C289.53 234.034 289.974 233.82 290.427 233.575L296.333 244.514ZM274.806 232.711C275.325 232.987 275.836 233.241 276.34 233.473L271.135 244.762C270.406 244.426 269.684 244.066 268.97 243.687L274.806 232.711ZM300.553 241.79C299.887 242.292 299.214 242.764 298.535 243.205L291.765 232.78C292.19 232.503 292.624 232.199 293.066 231.866L300.553 241.79ZM271.77 230.906C272.285 231.243 272.793 231.56 273.297 231.86L266.94 242.542C266.278 242.148 265.621 241.738 264.969 241.312L271.77 230.906ZM304.305 238.574C304.009 238.86 303.705 239.144 303.395 239.426C303.084 239.71 302.771 239.986 302.456 240.256L294.364 230.82C294.583 230.632 294.805 230.436 295.028 230.232C295.253 230.028 295.471 229.824 295.681 229.622L304.305 238.574ZM268.764 228.785C269.271 229.168 269.773 229.535 270.271 229.887L263.102 240.041C262.491 239.61 261.883 239.166 261.279 238.71L268.764 228.785ZM141.945 239.624C140.949 239.802 139.933 239.898 138.899 239.909L138.762 227.479C139.117 227.475 139.446 227.442 139.753 227.387L141.945 239.624ZM136.426 227.154C136.873 227.273 137.282 227.354 137.656 227.405L135.961 239.72C135.051 239.595 134.139 239.409 133.226 239.166L136.426 227.154ZM147.667 237.569C146.799 238.051 145.886 238.473 144.926 238.821L140.685 227.136C140.992 227.025 141.305 226.882 141.628 226.703L147.667 237.569ZM133.711 226.128C133.924 226.232 134.147 226.334 134.382 226.435C134.628 226.541 134.867 226.637 135.098 226.724L130.71 238.354C130.302 238.2 129.893 238.036 129.484 237.86C129.072 237.684 128.669 237.499 128.274 237.307L133.711 226.128ZM265.801 226.425C266.3 226.842 266.795 227.247 267.288 227.64L259.539 237.36C258.966 236.903 258.395 236.437 257.826 235.961L265.801 226.425ZM307.601 234.981C307.098 235.609 306.566 236.227 306.005 236.837L296.856 228.421C297.234 228.01 297.583 227.604 297.904 227.204L307.601 234.981ZM131.487 224.739C131.792 224.987 132.134 225.231 132.516 225.47L125.928 236.012C125.13 235.513 124.375 234.975 123.664 234.399L131.487 224.739ZM152.153 234.248C151.498 234.864 150.806 235.452 150.075 236L142.615 226.058C142.944 225.81 143.285 225.523 143.637 225.192L152.153 234.248ZM262.883 223.886C263.375 224.329 263.864 224.763 264.35 225.186L256.186 234.561C255.642 234.087 255.098 233.604 254.556 233.116L262.883 223.886ZM310.471 230.754C310.056 231.492 309.604 232.22 309.116 232.938L298.842 225.939C299.136 225.508 299.399 225.083 299.633 224.666L310.471 230.754ZM129.892 223.046C130.111 223.355 130.352 223.652 130.62 223.936L121.567 232.455C120.896 231.742 120.287 230.994 119.738 230.216L129.892 223.046ZM155.515 230.514C155.013 231.161 154.491 231.792 153.946 232.403L144.672 224.126C145.009 223.748 145.35 223.336 145.697 222.89L155.515 230.514ZM260.014 221.22C260.496 221.68 260.976 222.132 261.454 222.577L252.991 231.682C252.472 231.199 251.953 230.71 251.435 230.216L260.014 221.22ZM257.171 218.451C257.646 218.923 258.12 219.389 258.591 219.848L249.915 228.751C249.415 228.263 248.914 227.77 248.414 227.274L257.171 218.451ZM158.177 226.702C157.767 227.348 157.345 227.985 156.912 228.61L146.702 221.518C147.028 221.049 147.355 220.556 147.684 220.037L158.177 226.702ZM312.612 225.89C312.338 226.734 312.019 227.569 311.653 228.396L300.284 223.368C300.48 222.925 300.647 222.486 300.789 222.051L312.612 225.89ZM128.77 220.881C128.924 221.295 129.094 221.679 129.28 222.037L118.249 227.768C117.815 226.933 117.442 226.082 117.121 225.222L128.77 220.881ZM254.343 215.604C254.814 216.084 255.284 216.56 255.751 217.031L246.929 225.788C246.442 225.297 245.955 224.804 245.468 224.308L254.343 215.604ZM160.431 222.902C160.075 223.54 159.712 224.173 159.343 224.797L148.643 218.47C148.954 217.943 149.267 217.398 149.581 216.837L160.431 222.902ZM313.726 220.612C313.634 221.507 313.496 222.4 313.307 223.292L301.145 220.72C301.241 220.266 301.312 219.809 301.359 219.347L313.726 220.612ZM251.52 212.699C251.99 213.186 252.458 213.67 252.925 214.151L244.009 222.813C243.531 222.321 243.053 221.827 242.576 221.332L251.52 212.699ZM128.054 218.111C128.141 218.627 128.243 219.112 128.361 219.569L116.323 222.673C116.109 221.84 115.935 221.005 115.795 220.171L128.054 218.111ZM162.44 219.162C162.115 219.787 161.787 220.41 161.456 221.027L150.499 215.156C150.801 214.593 151.104 214.018 151.409 213.431L162.44 219.162ZM250.107 211.231L241.144 219.845C240.669 219.351 240.194 218.856 239.72 218.362L248.691 209.757C249.165 210.25 249.636 210.742 250.107 211.231ZM313.734 215.304C313.817 216.177 313.861 217.056 313.861 217.94L301.43 217.941C301.43 217.466 301.407 216.981 301.359 216.486L313.734 215.304ZM127.729 214.841C127.754 215.426 127.793 215.988 127.846 216.527L115.474 217.74C115.397 216.955 115.344 216.168 115.31 215.385L127.729 214.841ZM164.322 215.472C164.013 216.085 163.703 216.699 163.392 217.309L152.315 211.668C152.615 211.078 152.917 210.481 153.223 209.875L164.322 215.472ZM247.273 208.278L238.304 216.885C237.832 216.393 237.36 215.902 236.888 215.411L245.845 206.792C246.323 207.289 246.799 207.784 247.273 208.278ZM312.824 210.276C313.04 211.096 313.226 211.923 313.378 212.757L301.15 214.994C301.058 214.49 300.943 213.974 300.804 213.446L312.824 210.276ZM242.972 203.821C243.454 204.317 243.935 204.812 244.414 205.308L235.477 213.948C235.007 213.462 234.536 212.977 234.066 212.494L242.972 203.821ZM166.143 211.862C165.84 212.459 165.539 213.057 165.236 213.657L154.135 208.064C154.439 207.46 154.748 206.849 155.059 206.235L166.143 211.862ZM127.716 211.242C127.698 211.87 127.689 212.48 127.69 213.074L115.259 213.101C115.258 212.36 115.269 211.619 115.291 210.881L127.716 211.242ZM311.284 205.669C311.586 206.421 311.867 207.178 312.123 207.942L300.338 211.898C300.164 211.377 299.967 210.846 299.75 210.305L311.284 205.669ZM240.051 200.852C240.542 201.345 241.031 201.839 241.518 202.335L232.653 211.049C232.181 210.569 231.709 210.092 231.237 209.617L240.051 200.852ZM167.962 208.341C167.656 208.92 167.353 209.502 167.051 210.089L156.003 204.389C156.321 203.773 156.643 203.154 156.971 202.534L167.962 208.341ZM127.909 207.426C127.865 208.082 127.826 208.726 127.794 209.357L115.379 208.716C115.416 208.01 115.459 207.303 115.506 206.601L127.909 207.426ZM309.335 201.427C309.691 202.119 310.032 202.816 310.355 203.516L299.065 208.719C298.822 208.192 298.561 207.657 298.282 207.114L309.335 201.427ZM237.072 197.899C237.574 198.388 238.074 198.881 238.573 199.375L229.821 208.202C229.345 207.731 228.869 207.263 228.393 206.798L237.072 197.899ZM169.821 204.938C169.506 205.493 169.193 206.056 168.884 206.624L157.97 200.672C158.309 200.05 158.655 199.427 159.008 198.806L169.821 204.938ZM307.12 197.479C307.511 198.126 307.891 198.775 308.257 199.426L297.423 205.52C297.126 204.992 296.814 204.459 296.487 203.919L307.12 197.479ZM128.203 203.447C128.15 204.128 128.099 204.793 128.049 205.455L115.653 204.529C115.704 203.851 115.756 203.168 115.808 202.496L128.203 203.447ZM234.018 194.979C234.533 195.461 235.047 195.947 235.558 196.436L226.965 205.419C226.484 204.959 226.004 204.505 225.524 204.055L234.018 194.979ZM171.756 201.686C171.426 202.212 171.1 202.747 170.777 203.29L160.091 196.939C160.461 196.317 160.839 195.696 161.226 195.079L171.756 201.686ZM230.873 192.11C231.404 192.58 231.931 193.056 232.456 193.535L224.076 202.716C223.591 202.273 223.106 201.837 222.621 201.406L230.873 192.11ZM304.728 193.761C305.143 194.373 305.55 194.987 305.946 195.602L295.496 202.334C295.157 201.808 294.806 201.278 294.443 200.743L304.728 193.761ZM128.499 199.321C128.454 200.021 128.406 200.716 128.356 201.402L115.958 200.499C116.006 199.84 116.052 199.186 116.093 198.537L128.499 199.321ZM173.803 198.625C173.452 199.114 173.106 199.615 172.764 200.128L162.426 193.224C162.839 192.605 163.263 191.991 163.699 191.383L173.803 198.625ZM227.611 189.306C228.161 189.762 228.707 190.225 229.251 190.692L221.146 200.117C220.654 199.694 220.163 199.279 219.672 198.871L227.611 189.306ZM302.217 190.22C302.65 190.806 303.075 191.393 303.492 191.982L293.353 199.174C292.982 198.651 292.601 198.124 292.21 197.593L302.217 190.22ZM224.203 186.59C224.779 187.029 225.351 187.476 225.92 187.93L218.169 197.648C217.666 197.247 217.164 196.855 216.663 196.472L224.203 186.59ZM128.699 195.049C128.68 195.773 128.652 196.492 128.617 197.204L116.201 196.608C116.232 195.97 116.256 195.339 116.273 194.715L128.699 195.049ZM175.982 195.819C175.609 196.26 175.24 196.715 174.875 197.186L165.053 189.566C165.521 188.962 166.003 188.367 166.5 187.781L175.982 195.819ZM299.629 186.815C300.072 187.381 300.51 187.948 300.941 188.516L291.047 196.041C290.651 195.52 290.247 194.997 289.835 194.47L299.629 186.815ZM220.629 183.998C221.236 184.415 221.84 184.841 222.439 185.276L215.138 195.337C214.624 194.964 214.11 194.601 213.597 194.249L220.629 183.998ZM178.316 193.329C177.916 193.712 177.52 194.112 177.13 194.529L168.054 186.035C168.593 185.459 169.15 184.894 169.724 184.345L178.316 193.329ZM216.858 181.574C217.503 181.96 218.143 182.359 218.778 182.767L212.049 193.22C211.523 192.881 210.997 192.554 210.473 192.24L216.858 181.574ZM296.998 183.522C297.444 184.07 297.887 184.618 298.326 185.166L288.617 192.929C288.204 192.413 287.786 191.895 287.362 191.375L296.998 183.522ZM128.692 190.619C128.718 191.369 128.729 192.115 128.73 192.855L116.299 192.858C116.299 192.244 116.289 191.638 116.269 191.042L128.692 190.619ZM180.802 191.231C180.376 191.544 179.955 191.876 179.54 192.227L171.518 182.731C172.139 182.206 172.78 181.699 173.442 181.213L180.802 191.231ZM212.86 179.375C213.547 179.719 214.228 180.078 214.903 180.45L208.901 191.336C208.364 191.04 207.829 190.758 207.295 190.491L212.86 179.375ZM183.442 189.577C182.988 189.814 182.542 190.071 182.103 190.346L175.499 179.814C176.204 179.372 176.931 178.953 177.68 178.562L183.442 189.577ZM294.334 180.302C294.782 180.836 295.227 181.37 295.669 181.904L286.093 189.831C285.669 189.318 285.24 188.804 284.807 188.287L294.334 180.302ZM208.608 177.476C209.339 177.763 210.063 178.067 210.78 178.389L205.698 189.733C205.154 189.489 204.612 189.262 204.072 189.05L208.608 177.476ZM128.341 186.028C128.437 186.802 128.512 187.575 128.57 188.343L116.174 189.272C116.13 188.688 116.074 188.116 116.004 187.555L128.341 186.028ZM186.332 188.355C186.065 188.446 185.796 188.542 185.526 188.643C185.287 188.733 185.051 188.827 184.818 188.926L179.97 177.48C180.361 177.314 180.757 177.156 181.158 177.005C181.548 176.859 181.938 176.719 182.328 176.587L186.332 188.355ZM204.094 175.975C204.867 176.186 205.633 176.419 206.392 176.672L202.455 188.463C201.908 188.28 201.364 188.115 200.822 187.967L204.094 175.975ZM189.498 187.497C188.976 187.603 188.45 187.727 187.918 187.871L184.67 175.872C185.462 175.657 186.254 175.47 187.045 175.311L189.498 187.497ZM199.343 174.982C200.151 175.099 200.953 175.242 201.747 175.408L199.195 187.574C198.651 187.46 198.109 187.364 197.567 187.286L199.343 174.982ZM192.705 187.078C192.175 187.11 191.643 187.161 191.107 187.231L189.496 174.905C190.317 174.797 191.134 174.719 191.948 174.67L192.705 187.078ZM194.435 174.605C195.261 174.612 196.082 174.648 196.898 174.711L195.94 187.105C195.403 187.064 194.864 187.04 194.325 187.036L194.435 174.605ZM291.656 177.135C292.102 177.659 292.548 178.184 292.991 178.708L283.502 186.738C283.07 186.226 282.633 185.713 282.194 185.197L291.656 177.135ZM127.476 181.307C127.673 182.098 127.841 182.889 127.984 183.679L115.753 185.898C115.655 185.355 115.542 184.826 115.413 184.31L127.476 181.307ZM290.312 175.562L280.868 183.645C280.428 183.131 279.986 182.615 279.542 182.097L288.978 174.005C289.423 174.524 289.868 175.043 290.312 175.562ZM125.914 176.566C126.242 177.348 126.533 178.137 126.792 178.928L114.979 182.796C114.818 182.306 114.641 181.828 114.447 181.363L125.914 176.566ZM287.645 172.45L278.207 180.54C277.762 180.021 277.315 179.5 276.868 178.977L286.317 170.899C286.759 171.417 287.202 171.933 287.645 172.45ZM123.537 172.025C124.006 172.757 124.436 173.5 124.83 174.253L113.813 180.011C113.586 179.578 113.341 179.154 113.075 178.739L123.537 172.025ZM45.3285 178.781C44.5075 178.813 43.6891 178.826 42.8759 178.813L43.0616 166.384C43.6278 166.392 44.2185 166.384 44.834 166.36L45.3285 178.781ZM39.8258 166.11C40.3102 166.193 40.8281 166.258 41.3811 166.304L40.3454 178.691C39.4717 178.618 38.6003 178.511 37.736 178.364L39.8258 166.11ZM49.9916 178.4C49.2183 178.491 48.4475 178.571 47.6813 178.634L46.6488 166.246C47.2568 166.196 47.8821 166.132 48.5244 166.055L49.9916 178.4ZM54.4654 177.744C53.7296 177.87 52.9959 177.987 52.266 178.095L50.4483 165.798C51.0772 165.705 51.7184 165.602 52.3716 165.491L54.4654 177.744ZM37.2106 165.372C37.577 165.529 37.9807 165.672 38.4263 165.798L35.0479 177.761C34.1231 177.5 33.2076 177.181 32.3097 176.796L37.2106 165.372ZM120.331 167.904C120.635 168.231 120.934 168.566 121.226 168.91C121.509 169.242 121.782 169.578 122.047 169.918L112.229 177.543C112.078 177.349 111.922 177.157 111.76 176.966C111.586 176.762 111.41 176.565 111.232 176.374L120.331 167.904ZM283.687 167.807C284.123 168.322 284.56 168.838 284.998 169.353L275.529 177.407C275.083 176.882 274.636 176.355 274.189 175.827L283.687 167.807ZM58.8017 176.925C58.0821 177.072 57.3641 177.214 56.6489 177.35L54.3339 165.136C54.9849 165.013 55.6452 164.882 56.3145 164.746L58.8017 176.925ZM63.0282 176.017C62.3241 176.174 61.6206 176.329 60.9192 176.48L58.3017 164.328C58.9663 164.185 59.6378 164.037 60.3163 163.886L63.0282 176.017ZM67.1712 175.071C66.482 175.23 65.792 175.389 65.1037 175.547L62.3304 163.43C63.004 163.275 63.6824 163.119 64.3664 162.96L67.1712 175.071ZM35.3294 164.203C35.5929 164.436 35.8769 164.648 36.1854 164.84L29.6044 175.386C28.7271 174.839 27.8881 174.217 27.0953 173.516L35.3294 164.203ZM116.354 164.346C117.07 164.876 117.766 165.443 118.442 166.049L110.143 175.304C109.759 174.959 109.364 174.638 108.96 174.339L116.354 164.346ZM71.2584 174.124C70.5796 174.28 69.901 174.437 69.2212 174.595L66.4129 162.486C67.0955 162.327 67.7832 162.168 68.4736 162.009L71.2584 174.124ZM281.101 164.714C281.528 165.229 281.956 165.745 282.387 166.26L272.852 174.236C272.407 173.704 271.963 173.169 271.52 172.633L281.101 164.714ZM75.2994 173.214C74.6295 173.361 73.958 173.511 73.2849 173.662L70.5499 161.536C71.2437 161.38 71.941 161.224 72.6407 161.071L75.2994 173.214ZM111.79 161.584C112.583 161.97 113.364 162.393 114.13 162.856L107.7 173.495C107.264 173.232 106.815 172.988 106.351 172.762L111.79 161.584ZM79.2988 172.376C78.6364 172.508 77.9712 172.644 77.3033 172.784L74.7479 160.619C75.4549 160.47 76.1644 160.325 76.8753 160.184L79.2988 172.376ZM106.919 159.703C107.744 159.948 108.563 160.224 109.373 160.535L104.914 172.139C104.423 171.95 103.916 171.779 103.393 171.624L106.919 159.703ZM83.2561 171.645C82.6026 171.756 81.9448 171.872 81.283 171.995L79.0212 159.771C79.7422 159.638 80.4649 159.51 81.1883 159.388L83.2561 171.645ZM87.1628 171.063C86.5211 171.145 85.8735 171.235 85.2202 171.332L83.3825 159.038C84.1186 158.928 84.8556 158.825 85.5927 158.732L87.1628 171.063ZM33.937 162.482C34.1488 162.842 34.3681 163.156 34.5917 163.432L24.9398 171.265C24.3098 170.489 23.7364 169.659 23.219 168.779L33.937 162.482ZM101.99 158.616C102.811 158.741 103.629 158.891 104.443 159.069L101.786 171.213C101.245 171.094 100.689 170.992 100.118 170.905L101.99 158.616ZM278.573 161.609C278.988 162.127 279.407 162.645 279.829 163.163L270.192 171.015C269.75 170.473 269.309 169.928 268.871 169.381L278.573 161.609ZM91.0126 170.674C90.3839 170.719 89.7471 170.775 89.1026 170.84L87.846 158.473C88.6027 158.396 89.3598 158.33 90.1163 158.275L91.0126 170.674ZM97.1333 158.15C97.9416 158.186 98.7487 158.24 99.5533 158.316L98.3847 170.692C97.7997 170.637 97.2015 170.596 96.5901 170.57L97.1333 158.15ZM94.771 170.531C94.1596 170.531 93.5377 170.543 92.9055 170.568L92.426 158.146C93.2079 158.116 93.9897 158.1 94.77 158.1L94.771 170.531ZM276.119 158.485C276.521 159.008 276.928 159.531 277.339 160.054L267.564 167.734C267.127 167.178 266.693 166.619 266.262 166.058L276.119 158.485ZM32.8669 159.954C33.0199 160.461 33.1854 160.916 33.3589 161.325L21.917 166.184C21.5572 165.336 21.2409 164.456 20.9659 163.545L32.8669 159.954ZM273.761 155.335C274.145 155.862 274.534 156.389 274.929 156.917L264.98 164.369C264.553 163.798 264.129 163.225 263.71 162.65L273.761 155.335ZM32.2261 156.892C32.2526 157.125 32.2874 157.371 32.3315 157.631C32.3809 157.922 32.434 158.201 32.4905 158.47L20.3262 161.029C20.2353 160.598 20.1521 160.159 20.0765 159.714C19.9956 159.239 19.9282 158.766 19.8748 158.297L32.2261 156.892ZM271.52 152.153C271.881 152.684 272.249 153.215 272.623 153.747L262.462 160.907C262.049 160.32 261.641 159.732 261.239 159.14L271.52 152.153ZM269.42 148.931C269.753 149.466 270.095 150.003 270.446 150.54L260.034 157.331C259.639 156.725 259.25 156.116 258.869 155.504L269.42 148.931ZM32.2597 154.51C32.2034 154.815 32.1649 155.172 32.1577 155.59L19.7287 155.376C19.747 154.314 19.8472 153.272 20.0354 152.253L32.2597 154.51ZM32.8865 152.921C32.7322 153.153 32.6052 153.394 32.5025 153.653L20.9522 149.057C21.3799 147.982 21.9107 146.978 22.5305 146.045L32.8865 152.921ZM267.486 145.659C267.789 146.203 268.102 146.747 268.425 147.293L257.725 153.621C257.352 152.989 256.986 152.353 256.629 151.714L267.486 145.659ZM34.3552 151.442C34.0058 151.702 33.7175 151.954 33.4797 152.197L24.6067 143.491C25.339 142.745 26.1208 142.075 26.9313 141.471L34.3552 151.442ZM36.9178 149.967C36.4034 150.205 35.938 150.445 35.5181 150.686L29.3252 139.908C30.0994 139.463 30.8935 139.058 31.6968 138.686L36.9178 149.967ZM265.759 142.346C266.025 142.898 266.304 143.451 266.593 144.006L255.572 149.756C255.227 149.094 254.891 148.427 254.567 147.756L265.759 142.346ZM40.2121 148.689C39.6089 148.889 39.0373 149.093 38.4967 149.301L34.0191 137.705C34.7687 137.415 35.5295 137.145 36.2953 136.891L40.2121 148.689ZM43.9231 147.594C43.2713 147.768 42.64 147.943 42.0291 148.123L38.5275 136.195C39.2531 135.982 39.9854 135.779 40.7199 135.583L43.9231 147.594ZM47.8761 146.606C47.1961 146.768 46.5299 146.929 45.8768 147.092L42.8763 135.028C43.5812 134.853 44.2898 134.682 44.9972 134.513L47.8761 146.606ZM51.9841 145.643C51.2885 145.806 50.5917 145.968 49.9131 146.127L47.0848 134.022C47.775 133.861 48.4554 133.702 49.1419 133.541L51.9841 145.643ZM264.278 138.998C264.501 139.557 264.737 140.117 264.986 140.68L253.62 145.713C253.312 145.016 253.016 144.315 252.734 143.61L264.278 138.998ZM56.2113 144.618C55.4982 144.799 54.7883 144.973 54.0849 145.143L51.1677 133.059C51.837 132.898 52.5011 132.735 53.16 132.568L56.2113 144.618ZM60.5303 143.445C59.8059 143.658 59.0817 143.861 58.3606 144.056L55.1149 132.057C55.7612 131.882 56.3992 131.703 57.0279 131.518L60.5303 143.445ZM64.9198 142.02C64.1877 142.284 63.4527 142.534 62.7177 142.772L58.8923 130.944C59.5081 130.745 60.1111 130.54 60.7007 130.327L64.9198 142.02ZM263.087 135.627C263.259 136.189 263.445 136.754 263.646 137.322L251.928 141.47C251.669 140.738 251.425 140.002 251.199 139.26L263.087 135.627ZM69.3566 140.204C68.6217 140.546 67.8801 140.867 67.135 141.171L62.4451 129.659C63.0191 129.425 63.5756 129.183 64.1139 128.933L69.3566 140.204ZM73.7682 137.823C73.0476 138.275 72.3145 138.698 71.573 139.097L65.6918 128.145C66.205 127.869 66.696 127.585 67.1646 127.291L73.7682 137.823ZM262.227 132.249C262.341 132.812 262.47 133.377 262.615 133.945L250.57 137.018C250.375 136.253 250.198 135.482 250.042 134.707L262.227 132.249ZM77.9891 134.679C77.3187 135.274 76.6268 135.833 75.9184 136.358L68.5175 126.37C68.9488 126.05 69.3559 125.721 69.7389 125.381L77.9891 134.679ZM81.7083 130.656C81.1488 131.402 80.5566 132.108 79.9361 132.777L70.8216 124.324C71.1574 123.962 71.4716 123.587 71.7642 123.196L81.7083 130.656ZM261.737 128.885C261.786 129.444 261.852 130.005 261.934 130.568L249.634 132.366C249.518 131.575 249.424 130.778 249.354 129.977L261.737 128.885ZM84.5455 125.901C84.3545 126.307 84.153 126.712 83.9413 127.116C83.7229 127.534 83.4946 127.943 83.2569 128.343L72.5705 121.992C72.694 121.785 72.8129 121.572 72.9272 121.353C73.0606 121.098 73.1846 120.848 73.2997 120.604L84.5455 125.901ZM261.643 125.554C261.624 126.106 261.623 126.658 261.639 127.212L249.213 127.562C249.19 126.756 249.192 125.948 249.219 125.136L261.643 125.554ZM261.962 122.271C261.874 122.815 261.804 123.357 261.751 123.899L249.379 122.693C249.457 121.891 249.561 121.088 249.691 120.284L261.962 122.271ZM86.3727 120.823C86.1547 121.705 85.8847 122.585 85.5648 123.462L73.886 119.205C74.0605 118.726 74.1983 118.271 74.3048 117.84L86.3727 120.823ZM262.697 119.046C262.539 119.58 262.401 120.112 262.28 120.641L250.16 117.876C250.338 117.096 250.542 116.317 250.771 115.537L262.697 119.046ZM87.0389 115.102C87.0552 116.082 87.0032 117.068 86.8825 118.061L74.5425 116.56C74.5956 116.124 74.6165 115.708 74.6099 115.309L87.0389 115.102ZM263.818 115.953C263.714 116.182 263.616 116.413 263.523 116.648C263.417 116.917 263.315 117.185 263.219 117.452L251.527 113.23C251.666 112.846 251.811 112.462 251.962 112.078C252.131 111.651 252.309 111.231 252.497 110.818L263.818 115.953ZM265.345 113.294C265.043 113.724 264.765 114.16 264.51 114.603L253.732 108.41C254.18 107.63 254.66 106.879 255.168 106.156L265.345 113.294ZM86.109 109.276C86.3974 110.212 86.6234 111.173 86.7808 112.158L74.5059 114.12C74.4427 113.725 74.3505 113.33 74.2285 112.934L86.109 109.276ZM267.424 110.793C267.033 111.198 266.664 111.609 266.318 112.024L256.764 104.072C257.316 103.408 257.89 102.771 258.482 102.158L267.424 110.793ZM83.7829 104.116C84.2604 104.911 84.6969 105.734 85.0849 106.586L73.7719 111.738C73.5904 111.34 73.3761 110.932 73.1259 110.516L83.7829 104.116ZM269.994 108.452C269.527 108.831 269.08 109.214 268.654 109.602L260.29 100.406C260.9 99.8504 261.525 99.3159 262.16 98.8005L269.994 108.452ZM80.6675 99.8738C81.2319 100.52 81.7716 101.187 82.2811 101.875L72.2927 109.275C71.9947 108.872 71.6652 108.464 71.3029 108.049L80.6675 99.8738ZM272.954 106.274C272.43 106.626 271.923 106.982 271.432 107.343L264.072 97.3251C264.71 96.8562 265.357 96.4026 266.009 95.9633L272.954 106.274ZM77.1845 96.3691C77.786 96.9078 78.3709 97.4592 78.9358 98.0242L70.1462 106.814C69.7541 106.422 69.336 106.027 68.8918 105.63L77.1845 96.3691ZM276.207 104.237C275.642 104.568 275.089 104.902 274.548 105.24L267.961 94.6977C268.611 94.2917 269.266 93.897 269.921 93.5127L276.207 104.237ZM73.5372 93.3865C74.1589 93.8543 74.7684 94.3306 75.3636 94.8155L67.5117 104.452C67.0492 104.076 66.5659 103.698 66.0625 103.319L73.5372 93.3865ZM279.681 102.304C279.087 102.62 278.499 102.939 277.92 103.261L271.883 92.3945C272.535 92.032 273.188 91.6778 273.839 91.3313L279.681 102.304ZM69.8132 90.7641C70.4431 91.1814 71.064 91.6043 71.6742 92.0329L64.5283 102.204C64.0173 101.845 63.4902 101.486 62.9477 101.127L69.8132 90.7641ZM283.32 100.424C282.704 100.735 282.091 101.047 281.483 101.36L275.785 90.3121C276.433 89.9782 277.078 89.65 277.717 89.3274L283.32 100.424ZM66.0524 88.3923C66.6843 88.7732 67.3095 89.1578 67.9267 89.5463L61.3038 100.066C60.7597 99.7235 60.2032 99.3811 59.635 99.0386L66.0524 88.3923ZM287.084 98.5373C286.454 98.8528 285.816 99.1715 285.188 99.4855L279.627 88.368C280.266 88.0483 280.889 87.7373 281.512 87.4254L287.084 98.5373ZM62.2742 86.1963C62.905 86.551 63.5311 86.9084 64.1513 87.2684L57.911 98.0193C57.3437 97.69 56.767 97.3609 56.1814 97.0316L62.2742 86.1963ZM290.953 96.562C290.308 96.9004 289.657 97.2353 289.006 97.5669L283.365 86.4896C283.984 86.1747 284.588 85.8633 285.179 85.5535L290.953 96.562ZM58.4913 84.1238C59.12 84.4604 59.7458 84.7988 60.3673 85.1389L54.3995 96.0434C53.8149 95.7235 53.2231 95.4035 52.6247 95.0832L58.4913 84.1238ZM294.909 94.3835C294.254 94.7661 293.59 95.1405 292.921 95.5074L286.941 84.6094C287.527 84.2878 288.093 83.9687 288.637 83.6508L294.909 94.3835ZM54.7147 82.1368C55.3441 82.4631 55.9719 82.7905 56.5969 83.1191L50.8121 94.1219C50.2107 93.8058 49.604 93.4893 48.9926 93.1722L54.7147 82.1368ZM298.928 91.815C298.27 92.281 297.596 92.7302 296.913 93.1643L290.247 82.672C290.777 82.3348 291.276 82.0012 291.744 81.67L298.928 91.815ZM52.8339 81.1667L47.1571 92.2255C46.5437 91.9107 45.9268 91.5954 45.3066 91.2791L50.9547 80.2054C51.5816 80.5252 52.2085 80.8456 52.8339 81.1667ZM49.0878 79.2549L43.4523 90.3348C42.8325 90.0195 42.2078 89.702 41.584 89.3845L47.2226 78.306C47.8445 78.6225 48.4648 78.938 49.0878 79.2549ZM302.94 88.5133C302.3 89.1379 301.631 89.7283 300.943 90.2879L293.095 80.6481C293.529 80.295 293.916 79.951 294.259 79.6158L302.94 88.5133ZM43.5272 76.4163C44.1394 76.7315 44.7537 77.0464 45.3699 77.3613L39.7129 88.4305C39.0882 88.1112 38.4621 87.7904 37.8362 87.4681L43.5272 76.4163ZM39.8738 74.5134C40.4766 74.8318 41.0832 75.1495 41.6929 75.467L35.9525 86.4931C35.3238 86.1657 34.6953 85.8364 34.0681 85.5051L39.8738 74.5134ZM306.605 83.8891C306.083 84.7858 305.497 85.6226 304.867 86.4044L295.191 78.5998C295.464 78.2621 295.683 77.9432 295.857 77.6424L306.605 83.8891ZM36.2793 72.579C36.8715 72.9045 37.4692 73.2291 38.0715 73.553L32.1838 84.5012C31.5512 84.161 30.9203 83.8182 30.2921 83.473L36.2793 72.579ZM32.7637 70.5954C33.3421 70.9313 33.9277 71.2661 34.5199 71.5999L28.4153 82.4288C27.7804 82.0708 27.1486 81.7096 26.5209 81.3451L32.7637 70.5954ZM308.785 77.7209C308.619 78.8399 308.346 79.9172 307.976 80.9506L296.272 76.7604C296.372 76.4812 296.444 76.1965 296.488 75.8987L308.785 77.7209ZM29.3511 68.5438C29.9079 68.8914 30.474 69.2376 31.0486 69.5827L24.6476 80.239C24.0159 79.8596 23.389 79.476 22.7678 79.0882L29.3511 68.5438ZM26.073 66.404C26.6016 66.7661 27.1418 67.1268 27.693 67.4863L20.9028 77.8987C20.2778 77.4911 19.6593 77.0782 19.0485 76.6599L26.073 66.404ZM243.143 64.5333C243.688 64.5608 244.247 64.5702 244.823 64.5619L245.002 76.9915C244.176 77.0034 243.346 76.9902 242.516 76.9482L243.143 64.5333ZM249.803 76.6617C249.015 76.755 248.224 76.831 247.431 76.8869L246.558 64.4868C247.14 64.4458 247.734 64.3891 248.34 64.3172L249.803 76.6617ZM239.997 64.1341C240.491 64.24 241.003 64.3262 241.532 64.3929L239.976 76.726C239.115 76.6174 238.254 76.4734 237.395 76.2896L239.997 64.1341ZM254.387 75.9353C253.634 76.082 252.878 76.2171 252.12 76.3382L250.159 64.0631C250.767 63.9661 251.383 63.8562 252.008 63.7343L254.387 75.9353ZM237.196 63.2494C237.633 63.4387 238.084 63.6065 238.55 63.7536L234.808 75.6078C233.95 75.3369 233.099 75.0216 232.259 74.6579L237.196 63.2494ZM258.77 74.9551C258.049 75.1349 257.325 75.3073 256.598 75.4706L253.873 63.342C254.496 63.2021 255.125 63.0525 255.76 62.8941L258.77 74.9551ZM22.972 64.1568C23.4644 64.5362 23.9712 64.9145 24.4918 65.2914L17.2019 75.3601C16.5872 74.9151 15.9811 74.4631 15.3852 74.004L22.972 64.1568ZM308.591 71.4067C308.795 72.4311 308.919 73.4531 308.958 74.4711L296.536 74.948C296.524 74.6204 296.482 74.2496 296.399 73.8302L308.591 71.4067ZM263.007 73.8144C262.31 74.0138 261.609 74.2094 260.905 74.3995L257.664 62.3986C258.301 62.2268 258.941 62.0481 259.585 61.8637L263.007 73.8144ZM234.745 61.8604C234.928 61.9929 235.119 62.1232 235.318 62.2511C235.519 62.3799 235.722 62.5023 235.928 62.6185L229.799 73.434C229.399 73.207 229.002 72.9679 228.61 72.7168C228.216 72.4641 227.832 72.2025 227.458 71.9319L234.745 61.8604ZM267.119 72.5889C266.443 72.7965 265.762 73.0037 265.076 73.2084L261.519 61.2973C262.167 61.1038 262.817 60.9062 263.47 60.7057L267.119 72.5889ZM20.1068 61.7851C20.5527 62.1845 21.0165 62.5829 21.4974 62.9807L13.5748 72.5598C12.9757 72.0643 12.3882 71.5596 11.8139 71.0454L20.1068 61.7851ZM306.796 65.9662C306.994 66.3939 307.181 66.8312 307.357 67.2777L307.487 67.6111C307.613 67.9446 307.733 68.2779 307.844 68.6112L296.054 72.5519C295.979 72.3274 295.894 72.0927 295.797 71.8478C295.704 71.6127 295.61 71.3926 295.514 71.1868L306.796 65.9662ZM271.133 71.3408C270.477 71.5456 269.806 71.7554 269.138 71.9637L265.439 60.0959C266.103 59.889 266.761 59.6833 267.427 59.4752L271.133 71.3408ZM275.06 70.1304C274.416 70.3243 273.764 70.5239 273.104 70.7279L269.435 58.8508C270.115 58.6408 270.796 58.4322 271.476 58.2275L275.06 70.1304ZM232.811 60.084C233.089 60.41 233.39 60.7228 233.716 61.0222L225.307 70.1766C224.609 69.5359 223.961 68.8626 223.361 68.1602L232.811 60.084ZM303.565 60.9582C304.241 61.7194 304.856 62.5419 305.414 63.4212L294.915 70.077C294.698 69.7345 294.481 69.4505 294.271 69.2133L303.565 60.9582ZM278.903 69.0255C278.278 69.1945 277.641 69.3729 276.994 69.5597L273.549 57.6156C274.253 57.4127 274.957 57.2149 275.66 57.0251L278.903 69.0255ZM17.5592 59.2816C17.9448 59.7019 18.3519 60.1222 18.7802 60.5427L10.0719 69.4134C9.49836 68.8503 8.94022 68.2747 8.40012 67.6862L17.5592 59.2816ZM298.461 57.0107C299.419 57.4971 300.34 58.076 301.213 58.7539L293.592 68.5746C293.356 68.3918 293.105 68.2328 292.833 68.0944L298.461 57.0107ZM282.629 68.1137C282.029 68.2418 281.414 68.3841 280.783 68.5392L277.816 56.4676C278.554 56.2863 279.293 56.1153 280.029 55.9578L282.629 68.1137ZM286.178 67.5061C285.62 67.573 285.037 67.659 284.43 67.7638L282.315 55.5143C283.109 55.3771 283.905 55.2585 284.7 55.1633L286.178 67.5061ZM292.608 55.1774C293.582 55.325 294.557 55.5386 295.524 55.8332L291.903 67.7246C291.562 67.6208 291.178 67.5335 290.745 67.4678L292.608 55.1774ZM287.197 54.9464C288.071 54.9012 288.95 54.8901 289.829 54.9221L289.377 67.3448C288.901 67.3275 288.389 67.3322 287.839 67.3606L287.197 54.9464ZM231.324 57.8566C231.538 58.2706 231.769 58.6623 232.016 59.0329L221.677 65.934C221.163 65.1635 220.7 64.3729 220.283 63.5674L231.324 57.8566ZM98.1777 65.8416C97.2858 65.8981 96.3979 65.9089 95.5153 65.8776L95.9562 53.4544C96.4436 53.4717 96.9214 53.4656 97.3907 53.4358L98.1777 65.8416ZM15.4325 56.659C15.7413 57.0979 16.0747 57.538 16.433 57.9794L6.78233 65.8144C6.25392 65.1636 5.74706 64.4961 5.2653 63.8112L15.4325 56.659ZM92.9549 53.0761C93.4729 53.1848 93.9795 53.2702 94.4752 53.333L92.9132 65.6653C92.0685 65.5583 91.2311 65.4159 90.402 65.2419L92.9549 53.0761ZM103.506 64.9349C102.625 65.1833 101.741 65.3812 100.855 65.5314L98.778 53.2754C99.231 53.1986 99.6816 53.0975 100.131 52.9709L103.506 64.9349ZM89.812 52.1808C90.3469 52.3703 90.8723 52.5388 91.3881 52.6864L87.9694 64.6379C87.1928 64.4158 86.4229 64.168 85.6605 63.8978L89.812 52.1808ZM108.488 62.9514C107.685 63.3697 106.871 63.7427 106.048 64.071L101.443 52.5249C101.873 52.3533 102.308 52.1544 102.747 51.9257L108.488 62.9514ZM86.5975 50.8452C87.1425 51.1027 87.6804 51.342 88.211 51.5629L83.4335 63.039C82.7132 62.7391 81.9983 62.4205 81.2891 62.0856L86.5975 50.8452ZM13.8329 53.9546C14.0496 54.4067 14.2922 54.86 14.5615 55.3148L3.86582 61.6492C3.41936 60.8953 3.00355 60.1213 2.62274 59.3267L13.8329 53.9546ZM112.964 60.0555C112.602 60.3445 112.228 60.6259 111.842 60.899C111.478 61.1565 111.111 61.4043 110.741 61.6423L104.015 51.1884C104.229 51.0506 104.445 50.9048 104.662 50.751C104.85 50.6182 105.032 50.4812 105.208 50.3404L112.964 60.0555ZM230.237 55.1161C230.387 55.6181 230.552 56.0956 230.731 56.5494L219.175 61.129C218.853 60.3171 218.572 59.4964 218.325 58.6716L230.237 55.1161ZM83.3686 49.1609C83.915 49.471 84.4562 49.7663 84.9922 50.0463L79.2379 61.0651C78.5653 60.7138 77.8967 60.3487 77.2325 59.9717L83.3686 49.1609ZM80.1627 47.2147C80.7031 47.5625 81.2397 47.8988 81.7728 48.2227L75.3183 58.8464C74.6873 58.4631 74.0594 58.0697 73.4348 57.6676L80.1627 47.2147ZM116.857 56.1684C116.298 56.8609 115.693 57.5402 115.036 58.1983L106.234 49.4207C106.566 49.0878 106.883 48.7327 107.189 48.3546L116.857 56.1684ZM166.673 56.7436C165.734 56.9242 164.775 57.0394 163.797 57.0855L163.211 44.6687C163.596 44.6505 163.966 44.6055 164.325 44.5366L166.673 56.7436ZM160.864 44.4645C161.04 44.5041 161.222 44.5387 161.412 44.5675C161.628 44.6003 161.837 44.6252 162.039 44.643L160.953 57.0263C160.485 56.9852 160.015 56.9288 159.545 56.8573C159.066 56.7847 158.596 56.696 158.132 56.5917L160.864 44.4645ZM12.8264 51.2017C12.9438 51.6654 13.0863 52.1261 13.2541 52.5848L1.58016 56.8561C1.2698 56.0079 1.00045 55.1404 0.775916 54.2538L12.8264 51.2017ZM76.9763 45.0646C77.5108 45.4406 78.0426 45.8078 78.5718 46.1653L71.6147 56.4668C71.0153 56.0621 70.4184 55.6499 69.8241 55.2318L76.9763 45.0646ZM229.536 51.9299C229.623 52.4967 229.724 53.0433 229.84 53.5697L217.697 56.2293C217.522 55.4304 217.374 54.6282 217.25 53.8261L229.536 51.9299ZM172.072 54.8996C171.237 55.3168 170.369 55.6858 169.466 55.997L165.416 44.2442C165.778 44.1194 166.144 43.9654 166.516 43.7799L172.072 54.8996ZM158.844 43.6866C159.168 43.8681 159.497 44.0234 159.835 44.1531L155.372 55.7551C154.459 55.4039 153.595 54.9938 152.777 54.5365L158.844 43.6866ZM119.753 51.869C119.345 52.5908 118.904 53.3163 118.422 54.0367L108.086 47.131C108.377 46.6958 108.658 46.2363 108.932 45.7513L119.753 51.869ZM73.8087 42.7609C74.3387 43.1579 74.8669 43.5482 75.3931 43.9312L68.0779 53.9817C67.5021 53.5626 66.9284 53.1386 66.3571 52.7107L73.8087 42.7609ZM176.557 51.9971C175.88 52.5404 175.174 53.0569 174.438 53.5382L167.637 43.1328C168.009 42.8896 168.388 42.614 168.774 42.3041L176.557 51.9971ZM156.846 42.2019C157.186 42.5163 157.521 42.7956 157.853 43.042L150.443 53.0235C149.717 52.4839 149.038 51.913 148.402 51.3246L156.846 42.2019ZM12.4225 48.3795C12.4403 48.8632 12.483 49.3361 12.5492 49.7994L0.243194 51.5566C0.11539 50.6616 0.0336846 49.7541 0 48.8345L12.4225 48.3795ZM229.177 48.4275C229.212 49.037 229.259 49.6317 229.318 50.2114L216.95 51.4662C216.872 50.6939 216.812 49.9209 216.767 49.1498L229.177 48.4275ZM70.653 40.3432C71.1806 40.7554 71.7068 41.163 72.2316 41.5654L64.6681 51.4304C64.1099 51.0024 63.5534 50.5713 62.9993 50.1383L70.653 40.3432ZM180.157 48.6181C179.608 49.2097 179.04 49.7864 178.451 50.3425L169.913 41.3074C170.287 40.9548 170.663 40.5739 171.043 40.1643L180.157 48.6181ZM121.873 47.5979C121.566 48.2907 121.24 48.9988 120.889 49.712L109.735 44.2248C109.997 43.6914 110.253 43.1388 110.507 42.5649L121.873 47.5979ZM154.807 39.9656C155.151 40.3972 155.491 40.7987 155.83 41.1711L146.634 49.5352C146.088 48.9354 145.574 48.325 145.088 47.7153L154.807 39.9656ZM67.4978 37.8426C68.0253 38.2655 68.5519 38.6854 69.0773 39.1021L61.3536 48.8422C60.8082 48.4097 60.2645 47.9759 59.7231 47.5419L67.4978 37.8426ZM12.6131 45.4339C12.5308 45.9466 12.4754 46.4429 12.4442 46.9238L0.039251 46.1189C0.0963434 45.239 0.19641 44.3533 0.339501 43.4624L12.6131 45.4339ZM229.088 44.7065C229.085 45.3446 229.089 45.9723 229.104 46.5893L216.676 46.8752C216.659 46.1286 216.653 45.3827 216.657 44.6401L229.088 44.7065ZM183.131 45.0616C182.669 45.6685 182.194 46.2664 181.707 46.8518L172.154 38.8972C172.516 38.4621 172.88 38.0051 173.244 37.527L183.131 45.0616ZM65.9166 36.5702L58.1087 46.2432C57.5723 45.8102 57.0373 45.377 56.5051 44.9461L64.3286 35.2859C64.8589 35.7153 65.3879 36.1434 65.9166 36.5702ZM152.747 37.1353C153.096 37.648 153.439 38.1398 153.782 38.6127L143.716 45.9073C143.285 45.3119 142.871 44.717 142.474 44.1345L152.747 37.1353ZM123.553 43.5864C123.297 44.2143 123.026 44.8816 122.749 45.5492L111.267 40.7842C111.525 40.1628 111.777 39.5431 112.042 38.8939L123.553 43.5864ZM13.3771 42.3717C13.1999 42.9033 13.05 43.4185 12.9253 43.9174L0.865343 40.9036C1.06985 40.0853 1.30968 39.2643 1.5842 38.4407L13.3771 42.3717ZM62.7337 33.994L54.9124 43.656C54.3811 43.226 53.8525 42.7988 53.3259 42.3743L61.1274 32.6961C61.6633 33.1281 62.1991 33.5613 62.7337 33.994ZM185.686 41.4669C185.281 42.0727 184.869 42.6738 184.448 43.2672L174.306 36.0796C174.654 35.5893 175.001 35.0832 175.349 34.5621L185.686 41.4669ZM229.192 40.8326C229.163 41.4905 229.138 42.1415 229.121 42.7856L216.695 42.4423C216.715 41.7183 216.742 40.9967 216.773 40.28L229.192 40.8326ZM151.688 35.5545L141.324 42.4182C140.944 41.8443 140.597 41.3173 140.237 40.7772L150.584 33.8872C150.953 34.442 151.335 35.021 151.688 35.5545ZM125.073 40.0112C124.823 40.5535 124.574 41.1249 124.318 41.7315L112.864 36.9016C113.154 36.2148 113.459 35.5124 113.782 34.8102L125.073 40.0112ZM57.8728 30.0958C58.4187 30.5269 58.9642 30.9609 59.5088 31.3964L51.746 41.1053C51.2174 40.6827 50.6916 40.2644 50.1685 39.8513L57.8728 30.0958ZM14.6524 39.2583C14.3966 39.7888 14.1663 40.3056 13.9596 40.8087L2.46148 36.084C2.76511 35.3451 3.09629 34.604 3.4547 33.8605L14.6524 39.2583ZM187.983 37.8679C187.614 38.4695 187.24 39.0696 186.86 39.6656L176.376 32.9866C176.714 32.4562 177.052 31.9148 177.39 31.3632L187.983 37.8679ZM148.104 30.3416C148.556 30.9423 148.989 31.5481 149.404 32.1456L139.191 39.2336C138.842 38.731 138.505 38.2595 138.171 37.8169L148.104 30.3416ZM229.414 36.8389C229.371 37.5139 229.33 38.1841 229.293 38.8508L216.882 38.152C216.921 37.4474 216.964 36.7467 217.008 36.0537L229.414 36.8389ZM54.5379 27.5085C55.0988 27.9347 55.6593 28.3656 56.2188 28.8001L48.5946 38.6183C48.0657 38.2077 47.5403 37.8037 47.0181 37.407L54.5379 27.5085ZM126.614 37.1284C126.356 37.5271 126.097 37.9694 125.836 38.4613L114.86 32.6247C115.26 31.8724 115.699 31.1137 116.184 30.3651L126.614 37.1284ZM16.3572 36.1461C16.0442 36.6586 15.7529 37.1606 15.4823 37.652L4.59277 31.6568C4.95636 30.9963 5.3413 30.3334 5.74764 29.6679L16.3572 36.1461ZM144.889 26.6292C145.51 27.2352 146.088 27.863 146.628 28.4946L137.175 36.5676C136.839 36.1744 136.518 35.8287 136.208 35.5262L144.889 26.6292ZM51.0876 24.9618C51.6707 25.3783 52.2531 25.8018 52.8341 26.2312L45.4458 36.2281C44.9141 35.8351 44.3865 35.4514 43.8632 35.0777L51.0876 24.9618ZM190.117 34.304C189.77 34.8946 189.42 35.4871 189.067 36.0784L178.397 29.7005C178.73 29.1433 179.063 28.5792 179.398 28.0086L190.117 34.304ZM128.18 35.2454C127.921 35.4728 127.662 35.7392 127.4 36.0531L117.858 28.0855C118.489 27.33 119.189 26.5977 119.972 25.9097L128.18 35.2454ZM229.68 32.726C229.636 33.417 229.591 34.1103 229.546 34.7974L217.142 33.9849C217.187 33.2962 217.231 32.6187 217.273 31.9469L229.68 32.726ZM140.275 23.2137C141.185 23.6925 142.023 24.2376 142.797 24.8224L135.302 34.7394C135.012 34.52 134.741 34.3488 134.488 34.2154L140.275 23.2137ZM129.856 34.2279C129.528 34.355 129.237 34.5003 128.973 34.6603L122.524 24.033C123.413 23.4939 124.36 23.0256 125.369 22.6351L129.856 34.2279ZM18.4249 33.0621C18.2554 33.289 18.0849 33.525 17.9136 33.7702C17.7239 34.0419 17.5399 34.311 17.3615 34.5775L7.03139 27.6627C7.25614 27.3269 7.48631 26.9903 7.72193 26.6529C7.96753 26.3012 8.21619 25.9571 8.4677 25.6206L18.4249 33.0621ZM47.4763 22.4927C48.0913 22.8926 48.7047 23.3031 49.3163 23.722L42.2914 33.9776C41.7547 33.61 41.2238 33.2549 40.6985 32.9132L47.4763 22.4927ZM132.064 33.747C131.899 33.7585 131.721 33.7773 131.53 33.805C131.312 33.8367 131.108 33.8736 130.918 33.9147L128.296 21.7635C128.771 21.661 129.254 21.5744 129.744 21.5033C130.231 21.4326 130.716 21.38 131.199 21.3463L132.064 33.747ZM134.242 21.3902C135.318 21.4999 136.354 21.7099 137.351 22.0117L133.747 33.9088C133.514 33.8381 133.261 33.7855 132.98 33.7569L134.242 21.3902ZM192.16 30.8005C191.992 31.0893 191.824 31.3786 191.655 31.6693C191.486 31.9596 191.316 32.2515 191.146 32.5433L180.403 26.2891C180.571 26.0002 180.74 25.7109 180.909 25.4201C181.078 25.1298 181.247 24.8379 181.417 24.546L192.16 30.8005ZM43.6411 20.1568C44.299 20.5283 44.9543 20.9143 45.6064 21.3127L39.126 31.9206C38.5861 31.5907 38.054 31.2777 37.5298 30.9818L43.6411 20.1568ZM20.482 30.6822C20.138 31.0194 19.7867 31.3936 19.4293 31.8083L10.0143 23.6916C10.5864 23.0279 11.1743 22.3993 11.7785 21.8068L20.482 30.6822ZM229.908 28.4843C229.879 29.1966 229.843 29.9106 229.804 30.6229L217.392 29.9425C217.429 29.2742 217.461 28.6185 217.488 27.9748L229.908 28.4843ZM39.4956 18.0449C40.2064 18.3653 40.9123 18.7065 41.613 19.0649L35.9519 30.1316C35.4193 29.8592 34.8979 29.6079 34.3877 29.378L39.4956 18.0449ZM22.6343 28.9513C22.2773 29.1766 21.9096 29.4388 21.5322 29.7436L13.7225 20.0724C14.4595 19.4773 15.2181 18.9324 15.9986 18.4397L22.6343 28.9513ZM194.166 27.3889C193.833 27.9461 193.5 28.5102 193.165 29.0808L182.446 22.7856C182.793 22.195 183.143 21.6023 183.496 21.011L194.166 27.3889ZM34.8873 16.3066C35.6815 16.5445 36.4677 16.8136 37.245 17.109L32.829 28.7291C32.3097 28.5317 31.8069 28.3606 31.3203 28.2148L34.8873 16.3066ZM24.8198 27.9364C24.4563 28.047 24.091 28.1857 23.7226 28.3564L18.4957 17.0778C19.3824 16.6669 20.2851 16.3226 21.2016 16.0438L24.8198 27.9364ZM29.7098 15.2581C30.6112 15.3486 31.5026 15.4886 32.3823 15.6707L29.8623 27.8435C29.3763 27.7429 28.9121 27.6714 28.4683 27.6269L29.7098 15.2581ZM27.1712 27.5722C26.753 27.5806 26.3509 27.6156 25.9627 27.6758L24.057 15.3919C25.0142 15.2434 25.9702 15.1631 26.9215 15.144L27.1712 27.5722ZM229.992 24.0611C229.998 24.8055 229.992 25.553 229.976 26.3002L217.548 26.0457C217.561 25.3999 217.566 24.7725 217.561 24.1632L229.992 24.0611ZM196.188 24.1028C195.85 24.6332 195.512 25.1747 195.173 25.7264L184.58 19.2217C184.949 18.6201 185.324 18.0198 185.703 17.4238L196.188 24.1028ZM198.257 21.0098C197.91 21.5001 197.562 22.0062 197.214 22.5273L186.878 15.6225C187.282 15.0167 187.694 14.4156 188.115 13.8222L198.257 21.0098ZM229.759 19.3874C229.837 20.1756 229.893 20.9684 229.93 21.761L217.513 22.345C217.484 21.7393 217.444 21.1615 217.389 20.6112L229.759 19.3874ZM200.409 18.1922C200.047 18.6274 199.684 19.0842 199.32 19.5624L189.432 12.0282C189.895 11.4213 190.369 10.8232 190.856 10.2378L200.409 18.1922ZM228.888 14.3679C229.111 15.2157 229.29 16.0713 229.434 16.9265L217.176 18.9922C217.087 18.4626 216.983 17.9759 216.866 17.5294L228.888 14.3679ZM202.65 15.7813C202.277 16.1341 201.901 16.5152 201.521 16.9249L192.406 8.47175C192.955 7.88007 193.523 7.30339 194.111 6.74733L202.65 15.7813ZM226.732 9.02632C227.24 9.90311 227.667 10.8054 228.027 11.7185L216.46 16.272C216.307 15.8841 216.145 15.549 215.976 15.2585L226.732 9.02632ZM204.927 13.9554C204.555 14.1988 204.176 14.4744 203.79 14.7845L196.006 5.09252C196.682 4.54922 197.388 4.03273 198.124 3.55141L204.927 13.9554ZM222.578 4.17679C223.44 4.86461 224.215 5.62144 224.908 6.43656L215.437 14.4873C215.252 14.2695 215.05 14.0728 214.825 13.8932L222.578 4.17679ZM217.132 1.22144C218.101 1.55567 219.029 1.9565 219.912 2.42729L214.063 13.3961C213.787 13.249 213.462 13.1052 213.078 12.9727L217.132 1.22144ZM207.149 12.8426C206.786 12.9676 206.42 13.1217 206.048 13.3075L200.488 2.18956C201.323 1.77221 202.191 1.40304 203.094 1.09154L207.149 12.8426ZM211.605 0.0576626C212.073 0.098411 212.542 0.154576 213.013 0.225795C213.479 0.296304 213.939 0.37835 214.391 0.472429L211.861 12.6431C211.639 12.5969 211.404 12.5546 211.154 12.5168C210.938 12.4842 210.729 12.4594 210.527 12.4418L211.605 0.0576626ZM209.354 12.4167C208.969 12.4351 208.599 12.4804 208.24 12.5496L205.886 0.343548C206.824 0.162512 207.783 0.0467197 208.761 0L209.354 12.4167Z" fill="#2F7FFF"/>
</svg>
