<svg width="69" height="65" viewBox="0 0 69 65" fill="none" xmlns="http://www.w3.org/2000/svg">
<path d="M29.089 0.0718297C32.9665 -0.302489 35.9018 0.804209 37.9183 2.9704C39.8334 5.02762 40.6717 7.77903 41.0251 10.2711C41.7778 9.12436 42.6208 7.98322 43.5488 6.93543C45.7583 4.44047 48.7562 2.13165 52.4349 2.04327C56.2157 1.95246 59.9011 4.20952 63.4197 8.96869C66.9373 13.7265 67.9904 17.9305 66.6551 21.5244C65.3697 24.9842 62.1378 27.0875 59.017 28.3907C58.8168 28.4743 58.615 28.5553 58.4121 28.634C58.6833 28.7116 58.953 28.7924 59.2204 28.8772C62.4074 29.8888 65.8418 31.6053 67.4239 34.6972C69.137 38.0452 68.2562 42.0306 64.9984 46.4485C61.7006 50.9205 58.0895 53.0335 54.3522 53.167C50.7163 53.2969 47.5028 51.5254 44.9853 49.4446C44.1551 48.7584 43.3745 48.0167 42.6497 47.2583C42.7881 48.6635 42.8555 50.1269 42.8022 51.5767C42.676 55.0092 41.858 58.7907 39.2308 61.3811C36.492 64.0815 32.337 64.9763 26.7326 63.791C21.2192 62.6249 17.7685 60.3264 16.4036 56.9345C15.0807 53.6472 16.0523 50.1107 17.4403 47.2485C17.5806 46.9593 17.7274 46.6723 17.8796 46.3879C17.1278 46.7025 16.3604 46.985 15.5865 47.2196C12.2504 48.2311 8.29122 48.5026 5.09692 46.0016C1.95051 43.5381 0.229552 38.9042 0.0192503 31.849C-0.192035 24.7604 1.33926 20.0048 4.44882 17.3219C7.57098 14.6282 11.6436 14.5728 15.174 15.3115C17.9356 15.8893 20.6604 17.0085 22.9359 18.1382C22.4146 16.8177 21.9207 15.3798 21.5464 13.9171C20.8528 11.2063 20.4715 8.04591 21.4526 5.3541C21.9631 3.95356 22.8399 2.69083 24.1784 1.74189C25.4996 0.805094 27.1496 0.259056 29.089 0.0718297ZM34.7986 5.9155C33.8326 4.87781 32.2813 4.08964 29.497 4.35842C28.1055 4.49276 27.2147 4.85556 26.6401 5.26298C26.0826 5.65825 25.7083 6.17521 25.4668 6.83786C24.9439 8.2725 25.0555 10.373 25.6874 12.8426C26.3007 15.2395 27.3142 17.6464 28.1971 19.4853C28.6349 20.397 29.0325 21.1526 29.3189 21.6772C29.462 21.9392 29.577 22.1428 29.6547 22.2786C29.6935 22.3464 29.723 22.3973 29.7421 22.43C29.7516 22.4463 29.7585 22.4581 29.7627 22.4652C29.7648 22.4687 29.7662 22.471 29.7669 22.4722C29.7672 22.4727 29.7674 22.473 29.7674 22.473L29.7672 22.4727C29.767 22.4728 29.7663 22.4731 29.7637 22.4747L26.6927 25.3276C26.6907 25.3304 26.6901 25.3311 26.69 25.3313C26.6898 25.3312 26.6894 25.331 26.6889 25.3306C26.6872 25.3294 26.684 25.3271 26.6792 25.3236C26.6695 25.3168 26.6536 25.3055 26.6317 25.2901C26.588 25.2593 26.5203 25.2119 26.4302 25.15C26.2498 25.0261 25.9803 24.8443 25.6348 24.6202C24.9428 24.1715 23.9511 23.5569 22.7635 22.9015C20.3594 21.5747 17.2756 20.1495 14.3041 19.5278C11.2883 18.8968 8.86553 19.1819 7.23097 20.5921C5.5838 22.0132 4.0969 25.125 4.29347 31.7197C4.49103 38.3477 6.10101 41.3333 7.72151 42.6021C9.29411 43.8333 11.5379 43.95 14.3537 43.0962C17.1268 42.2554 19.9689 40.6061 22.1799 39.0995C23.2707 38.3562 24.1779 37.6683 24.8099 37.1684C25.1254 36.9188 25.371 36.7171 25.5353 36.5799C25.6173 36.5114 25.6791 36.459 25.7189 36.425C25.7387 36.408 25.7531 36.3956 25.7619 36.388C25.7662 36.3843 25.7691 36.3816 25.7706 36.3803C25.7711 36.3799 25.7714 36.3797 25.7716 36.3795C25.7715 36.3796 25.7721 36.3801 25.8081 36.4221L28.5784 39.5464C28.6142 39.5854 28.6187 39.5906 28.6193 39.5912C28.6192 39.5913 28.6191 39.5916 28.6188 39.5919C28.6175 39.5931 28.615 39.5954 28.6114 39.5988C28.6041 39.6056 28.5919 39.6171 28.5752 39.6328C28.5418 39.6644 28.4902 39.7135 28.4222 39.779C28.2862 39.9102 28.0851 40.107 27.834 40.3613C27.331 40.8707 26.6311 41.6067 25.8533 42.5032C24.2794 44.3174 22.4653 46.6996 21.2828 49.1381C20.0673 51.6445 19.7369 53.7521 20.3667 55.3172C20.9544 56.7777 22.7109 58.5402 27.6115 59.5767C32.4214 60.594 34.8943 59.6303 36.2392 58.3042C37.6957 56.8681 38.4173 54.4549 38.529 51.4175C38.6384 48.4422 38.1468 45.2707 37.6032 42.7893C37.334 41.5605 37.0578 40.5262 36.85 39.8027C36.7462 39.4414 36.6598 39.1588 36.6004 38.9697C36.5707 38.8751 36.5478 38.804 36.5329 38.7581C36.5254 38.7353 36.5199 38.7187 36.5166 38.7087C36.5149 38.7036 36.5138 38.7001 36.5133 38.6984L36.513 38.6974C36.5132 38.6974 36.5147 38.6967 36.5245 38.6934L40.4103 36.9977C40.4231 36.9906 40.4232 36.9909 40.4232 36.9908V36.9909C40.4238 36.9921 40.4252 36.9946 40.4272 36.9985C40.4314 37.0063 40.4386 37.0196 40.4487 37.038C40.4688 37.075 40.5007 37.1328 40.5437 37.2096C40.63 37.3633 40.7611 37.5927 40.9339 37.8822C41.2801 38.4619 41.7909 39.2785 42.4409 40.2105C43.7539 42.0933 45.5767 44.3624 47.6983 46.116C49.844 47.8896 52.0551 48.9401 54.2006 48.8635C56.2449 48.7904 58.7722 47.6687 61.5652 43.8812C64.3981 40.0395 64.2446 37.8852 63.6227 36.6698C62.8698 35.1984 60.9068 33.9276 57.935 32.9844C55.0771 32.0773 51.799 31.633 49.1775 31.4217C47.8788 31.3171 46.7662 31.2714 45.9814 31.252C45.5894 31.2423 45.2803 31.2391 45.0719 31.2384C44.9677 31.238 44.8887 31.2382 44.8373 31.2385C44.8117 31.2387 44.7929 31.2388 44.7812 31.2389C44.7754 31.239 44.7713 31.239 44.7691 31.2391H44.7672C44.7673 31.2391 44.7669 31.2391 44.7658 31.1478L44.6784 27.0564C44.6747 26.934 44.6749 26.934 44.6747 26.934H44.6761C44.6781 26.9339 44.6818 26.9337 44.6873 26.9336C44.6983 26.9332 44.7163 26.9326 44.7411 26.9316C44.7907 26.9297 44.8673 26.9264 44.9686 26.9214C45.1712 26.9113 45.4726 26.8942 45.8546 26.866C46.6196 26.8095 47.7033 26.7091 48.9643 26.5349C51.5128 26.1827 54.6723 25.5432 57.3789 24.4129C60.1588 23.252 61.9984 21.7695 62.6501 20.0154C63.2519 18.3956 63.1079 15.7577 59.9897 11.5402C56.8726 7.32407 54.3441 6.30483 52.5369 6.34823C50.6276 6.39409 48.6634 7.62995 46.7402 9.80161C44.8573 11.9278 43.3052 14.6273 42.2079 16.8616C41.6652 17.9664 41.2464 18.9315 40.9644 19.6169C40.8236 19.9592 40.7175 20.2305 40.6477 20.4131C40.6128 20.5044 40.5869 20.5734 40.5705 20.6179C40.5622 20.6402 40.5563 20.6564 40.5528 20.6661C40.551 20.671 40.5499 20.6743 40.5493 20.6759C40.5492 20.6763 40.549 20.6765 40.5489 20.6766C40.5485 20.6764 40.5461 20.6758 40.5353 20.6717L36.4651 19.4959C36.4478 19.4923 36.4479 19.4922 36.4478 19.4923C36.4478 19.4924 36.4477 19.4928 36.4477 19.493C36.4476 19.4933 36.4475 19.4933 36.4476 19.4931C36.4477 19.4927 36.4481 19.4911 36.4487 19.4884C36.4498 19.483 36.4518 19.4731 36.4547 19.4591C36.4604 19.4309 36.4694 19.3857 36.4811 19.3246C36.5045 19.2024 36.5386 19.0169 36.5781 18.7777C36.6573 18.2985 36.7577 17.608 36.8394 16.7811C37.0045 15.11 37.0847 12.9615 36.7949 10.8999C36.5004 8.80522 35.8596 7.05522 34.7986 5.9155Z" fill="#2F7FFF"/>
</svg>
