<svg width="161" height="154" viewBox="0 0 161 154" fill="none" xmlns="http://www.w3.org/2000/svg">
<path d="M97.1066 0.823867L103.434 42.0708L148.274 32.1957L153.527 43.0922L118.503 71.5097L160.675 112.056L154.134 122.337L98.3823 100.867L72.6348 153.86L60.829 151.144V100.528L4.42586 111.287L0 99.8902L48.6976 69.8747L16.626 36.6331L23.1854 26.4629L72.0038 43.8614L85.0039 0L97.1066 0.823867ZM80.1929 59.9768L43.9638 47.0648L68.3643 72.3556L35.2824 92.7457L73.2598 85.5019V124.129L92.1923 85.1626L129.851 99.6648L99.7463 70.7206L125.305 49.9829L93.1574 57.0629L89.0302 30.1593L80.1929 59.9768Z" fill="#F6F6F7"/>
</svg>
