<svg width="128" height="159" viewBox="0 0 128 159" fill="none" xmlns="http://www.w3.org/2000/svg">
<path d="M118.797 15.9631C121.578 17.7522 123.811 19.3445 125.362 20.5009C126.138 21.0796 126.745 21.5505 127.168 21.8841C127.379 22.0509 127.544 22.1835 127.661 22.2782C127.719 22.3255 127.765 22.3634 127.799 22.3913C127.816 22.4053 127.83 22.4169 127.841 22.4258C127.846 22.4303 127.851 22.4341 127.855 22.4373C127.857 22.4389 127.859 22.4409 127.86 22.4417C127.862 22.444 127.821 22.4967 123.892 27.2257C119.964 31.9538 119.922 32.0071 119.923 32.0088L119.925 32.0103C119.924 32.0091 119.919 32.0054 119.912 31.9992C119.897 31.9869 119.87 31.9649 119.831 31.9337C119.754 31.8711 119.63 31.7713 119.461 31.6381C119.124 31.3717 118.609 30.9716 117.931 30.4667C116.576 29.456 114.579 28.0305 112.072 26.4173C107.033 23.1755 100.049 19.2525 92.1413 16.3824C76.2388 10.6108 58.0596 9.48389 43.4256 24.4749C38.3438 29.6806 35.8131 35.6333 35.2251 41.9287C53.4667 37.611 71.9555 43.735 84.3821 53.5148C91.5837 59.1825 97.2845 66.4791 99.6249 74.4341C102.049 82.6724 100.757 91.4449 94.1947 98.6892C88.3055 105.19 80.5102 107.262 72.7064 106.291C65.1377 105.35 57.5151 101.591 50.7648 96.4515C39.513 87.8853 29.3482 74.4437 24.9547 59.8218C22.1807 61.6973 19.468 64.0109 16.8651 66.8258C6.4214 78.1202 3.78337 90.9123 5.61181 102.804C18.9039 99.5661 32.7525 103.977 42.0563 111.056C47.6097 115.281 52.1945 120.927 53.9668 127.36C55.8392 134.156 54.3846 141.312 48.723 147.175C44.3338 151.721 38.6704 153.31 32.9898 152.686C27.5325 152.086 22.1624 149.489 17.3927 145.925C9.67243 140.157 2.53948 131.129 -2.062 120.522C-2.63919 121.041 -3.20765 121.596 -3.76535 122.191C-13.7297 132.816 -12.3385 144.65 -7.64381 155.034C-5.29204 160.236 -2.20385 164.774 0.341718 168.045C1.60497 169.668 2.71102 170.95 3.48837 171.812C3.87645 172.242 4.18088 172.566 4.37985 172.775C4.47922 172.879 4.55225 172.953 4.59595 172.998L4.63912 173.042C4.63733 173.042 4.61253 173.066 4.08969 173.591L-3.57926 181.304C-4.12756 181.855 -4.12863 181.854 -4.12959 181.853C-4.13041 181.852 -4.13229 181.85 -4.13387 181.848C-4.13711 181.845 -4.14107 181.842 -4.14532 181.837C-4.15381 181.829 -4.16425 181.818 -4.17672 181.806C-4.2017 181.78 -4.23465 181.747 -4.27506 181.706C-4.35592 181.624 -4.46701 181.509 -4.60551 181.364C-4.88247 181.075 -5.26982 180.662 -5.74433 180.136C-6.69219 179.084 -7.99523 177.573 -9.46837 175.68C-12.3957 171.918 -16.0889 166.53 -18.9708 160.155C-24.7436 147.386 -27.6294 129.465 -12.8324 113.687C-10.7223 111.437 -8.45942 109.528 -6.08253 107.94C-9.41157 91.9997 -6.6224 73.9166 7.7381 58.3863C12.3725 53.3743 17.414 49.5116 22.6955 46.6815C22.2792 35.8294 25.6253 24.9137 34.5304 15.7914C54.1007 -4.25623 78.3787 -1.83676 96.3823 4.6975C105.428 7.98043 113.259 12.4003 118.797 15.9631ZM34.5291 120.948C27.5862 115.666 17.8419 112.833 9.0081 114.789C12.7712 123.845 18.7537 131.425 24.8329 135.967C28.4805 138.693 31.7869 140.048 34.3482 140.329C36.6863 140.586 38.3838 139.987 39.7807 138.541C42.3117 135.919 42.7178 133.33 41.9825 130.661C41.1471 127.629 38.6557 124.088 34.5291 120.948ZM76.6941 63.2832C66.1759 55.0053 50.7816 50.3908 36.368 54.4796C39.5392 66.7795 48.2493 78.9129 58.2949 86.5608C63.9448 90.8622 69.5371 93.3704 74.2404 93.9554C78.7087 94.511 82.2428 93.3673 84.9821 90.3434C88.3431 86.6332 89.03 82.4652 87.6994 77.9426C86.2855 73.1368 82.4993 67.852 76.6941 63.2832Z" fill="#F6F6F7"/>
</svg>
