<svg width="242" height="277" viewBox="0 0 242 277" fill="none" xmlns="http://www.w3.org/2000/svg">
<path d="M188.176 10.347L146.878 116.618L206.979 73.5579L223.501 96.7453L157.065 144.344L222.653 148.515L220.855 176.956L180.021 174.359L268 222.036L254.488 247.107L149.906 190.433L187.576 263.98L162.295 277L129.101 212.191L128.074 252.654L99.6633 251.929L100.643 213.338L71.3122 265.949L46.505 252.043L74.3883 202.028L16.0388 242.025L0 218.499L75.6721 166.627L25.8651 162.079L28.4424 133.699L74.4649 137.901L3.89044 75.2254L22.7334 53.8915L85.2265 109.39L69.0885 62.5023L95.9537 53.2051L117.12 114.704L161.695 0L188.176 10.347Z" fill="#F6F6F7"/>
</svg>
