<svg width="96" height="41" viewBox="0 0 96 41" fill="none" xmlns="http://www.w3.org/2000/svg">
<path d="M91.0425 15.1312C90.9022 13.9354 90.1203 12.5237 88.1666 11.1882C86.2044 9.84698 83.1761 8.67826 78.9277 8.04478C70.4359 6.77857 57.4943 7.71563 39.7446 13.0863L38.5052 8.98989C39.6292 8.64978 40.736 8.32663 41.8255 8.01988C28.9663 9.8221 19.492 12.5319 13.2351 15.6221C6.08319 19.1545 4.00561 22.6901 4.31319 25.3107C4.46602 26.6126 5.24194 27.9672 7.05623 29.2726C8.89607 30.5964 11.6872 31.7726 15.5191 32.6338C23.1738 34.3542 34.4748 34.7072 49.1757 32.9818C63.8765 31.2564 74.7885 28.2962 81.8369 24.8501C85.3653 23.125 87.8083 21.3345 89.2916 19.6207C90.7543 17.9306 91.1953 16.4332 91.0425 15.1312ZM95.2932 14.6323C95.6228 17.4411 94.5435 20.0922 92.5276 22.4214C90.5323 24.7268 87.5384 26.8263 83.7167 28.6949C76.0647 32.4361 64.6229 35.4779 49.6746 37.2324C34.7262 38.9869 22.8909 38.6771 14.5806 36.8094C10.43 35.8765 7.03144 34.5273 4.55654 32.7466C2.05612 30.9474 0.392249 28.6183 0.0625693 25.8096C-0.594802 20.2087 3.98585 15.417 11.3399 11.7848C18.9027 8.04957 30.3514 5.00861 45.6813 3.20934L46.1115 6.8748C60.4741 3.24768 71.5804 2.62206 79.5589 3.81175C84.2238 4.50733 87.9258 5.83959 90.5817 7.65494C93.246 9.47611 94.9697 11.8767 95.2932 14.6323Z" fill="#2F7FFF"/>
</svg>
